<mxfile host="65bd71144e">
    <diagram id="Ia3F5vTRLZpVt-muLBSL" name="Page-1">
        <mxGraphModel dx="807" dy="566" grid="1" gridSize="10" guides="1" tooltips="1" connect="1" arrows="1" fold="1" page="1" pageScale="1" pageWidth="1100" pageHeight="850" background="#6E6E6E" math="0" shadow="0">
            <root>
                <mxCell id="0"/>
                <mxCell id="1" parent="0"/>
                <mxCell id="HWPHDzoE_fYsGa_TJ66Y-8" value="0" style="ellipse;whiteSpace=wrap;html=1;aspect=fixed;" parent="1" vertex="1">
                    <mxGeometry x="100" y="40" width="50" height="50" as="geometry"/>
                </mxCell>
                <mxCell id="gtfGWuYc3_UtfgW0UjGu-23" value="" style="edgeStyle=orthogonalEdgeStyle;curved=1;rounded=0;orthogonalLoop=1;jettySize=auto;html=1;fontSize=18;" parent="1" source="HWPHDzoE_fYsGa_TJ66Y-11" target="HWPHDzoE_fYsGa_TJ66Y-12" edge="1">
                    <mxGeometry relative="1" as="geometry"/>
                </mxCell>
                <mxCell id="HWPHDzoE_fYsGa_TJ66Y-11" value="1" style="ellipse;whiteSpace=wrap;html=1;aspect=fixed;" parent="1" vertex="1">
                    <mxGeometry x="230" y="40" width="50" height="50" as="geometry"/>
                </mxCell>
                <mxCell id="gtfGWuYc3_UtfgW0UjGu-1" style="edgeStyle=orthogonalEdgeStyle;curved=1;rounded=0;orthogonalLoop=1;jettySize=auto;html=1;exitX=1;exitY=0.5;exitDx=0;exitDy=0;entryX=0.5;entryY=0;entryDx=0;entryDy=0;" parent="1" source="HWPHDzoE_fYsGa_TJ66Y-12" target="HWPHDzoE_fYsGa_TJ66Y-15" edge="1">
                    <mxGeometry relative="1" as="geometry"/>
                </mxCell>
                <mxCell id="gtfGWuYc3_UtfgW0UjGu-18" value="" style="edgeStyle=orthogonalEdgeStyle;curved=1;rounded=0;orthogonalLoop=1;jettySize=auto;html=1;fontSize=18;exitX=0.5;exitY=1;exitDx=0;exitDy=0;" parent="1" source="HWPHDzoE_fYsGa_TJ66Y-12" target="HWPHDzoE_fYsGa_TJ66Y-13" edge="1">
                    <mxGeometry relative="1" as="geometry">
                        <mxPoint x="415" y="190" as="targetPoint"/>
                        <Array as="points">
                            <mxPoint x="415" y="130"/>
                            <mxPoint x="135" y="130"/>
                        </Array>
                    </mxGeometry>
                </mxCell>
                <mxCell id="gtfGWuYc3_UtfgW0UjGu-20" value="" style="edgeStyle=orthogonalEdgeStyle;curved=1;rounded=0;orthogonalLoop=1;jettySize=auto;html=1;fontSize=18;entryX=0.5;entryY=0;entryDx=0;entryDy=0;" parent="1" source="HWPHDzoE_fYsGa_TJ66Y-12" target="HWPHDzoE_fYsGa_TJ66Y-14" edge="1">
                    <mxGeometry relative="1" as="geometry">
                        <mxPoint x="310" y="85" as="targetPoint"/>
                        <Array as="points">
                            <mxPoint x="415" y="190"/>
                        </Array>
                    </mxGeometry>
                </mxCell>
                <mxCell id="HWPHDzoE_fYsGa_TJ66Y-12" value="2" style="ellipse;whiteSpace=wrap;html=1;aspect=fixed;" parent="1" vertex="1">
                    <mxGeometry x="390" y="60" width="50" height="50" as="geometry"/>
                </mxCell>
                <mxCell id="gtfGWuYc3_UtfgW0UjGu-49" value="" style="edgeStyle=orthogonalEdgeStyle;curved=1;rounded=0;orthogonalLoop=1;jettySize=auto;html=1;fontSize=18;entryX=0.013;entryY=0.773;entryDx=0;entryDy=0;entryPerimeter=0;" parent="1" source="HWPHDzoE_fYsGa_TJ66Y-13" target="gtfGWuYc3_UtfgW0UjGu-35" edge="1">
                    <mxGeometry relative="1" as="geometry">
                        <mxPoint x="135" y="320" as="targetPoint"/>
                        <Array as="points">
                            <mxPoint x="130" y="569"/>
                        </Array>
                    </mxGeometry>
                </mxCell>
                <mxCell id="HWPHDzoE_fYsGa_TJ66Y-13" value="12" style="ellipse;whiteSpace=wrap;html=1;aspect=fixed;" parent="1" vertex="1">
                    <mxGeometry x="110" y="190" width="50" height="50" as="geometry"/>
                </mxCell>
                <mxCell id="HWPHDzoE_fYsGa_TJ66Y-14" value="7" style="ellipse;whiteSpace=wrap;html=1;aspect=fixed;" parent="1" vertex="1">
                    <mxGeometry x="220" y="190" width="50" height="50" as="geometry"/>
                </mxCell>
                <mxCell id="HWPHDzoE_fYsGa_TJ66Y-15" value="3" style="ellipse;whiteSpace=wrap;html=1;aspect=fixed;" parent="1" vertex="1">
                    <mxGeometry x="530" y="180" width="50" height="50" as="geometry"/>
                </mxCell>
                <mxCell id="gtfGWuYc3_UtfgW0UjGu-8" value="" style="edgeStyle=orthogonalEdgeStyle;curved=1;rounded=0;orthogonalLoop=1;jettySize=auto;html=1;fontSize=18;" parent="1" source="HWPHDzoE_fYsGa_TJ66Y-16" target="HWPHDzoE_fYsGa_TJ66Y-16" edge="1">
                    <mxGeometry relative="1" as="geometry"/>
                </mxCell>
                <mxCell id="HWPHDzoE_fYsGa_TJ66Y-16" value="4" style="ellipse;whiteSpace=wrap;html=1;aspect=fixed;" parent="1" vertex="1">
                    <mxGeometry x="530" y="280" width="50" height="50" as="geometry"/>
                </mxCell>
                <mxCell id="HWPHDzoE_fYsGa_TJ66Y-17" value="5" style="ellipse;whiteSpace=wrap;html=1;aspect=fixed;" parent="1" vertex="1">
                    <mxGeometry x="530" y="380" width="50" height="50" as="geometry"/>
                </mxCell>
                <mxCell id="gtfGWuYc3_UtfgW0UjGu-13" value="" style="edgeStyle=orthogonalEdgeStyle;curved=1;rounded=0;orthogonalLoop=1;jettySize=auto;html=1;fontSize=18;entryX=1;entryY=0.5;entryDx=0;entryDy=0;" parent="1" source="yls2ktVKsyxJQDVkuYz--9" target="HWPHDzoE_fYsGa_TJ66Y-14" edge="1">
                    <mxGeometry relative="1" as="geometry">
                        <mxPoint x="510" y="460" as="sourcePoint"/>
                    </mxGeometry>
                </mxCell>
                <mxCell id="gtfGWuYc3_UtfgW0UjGu-16" value="" style="edgeStyle=orthogonalEdgeStyle;curved=1;rounded=0;orthogonalLoop=1;jettySize=auto;html=1;fontSize=18;entryX=1;entryY=0.5;entryDx=0;entryDy=0;exitX=0;exitY=0.5;exitDx=0;exitDy=0;" parent="1" source="yls2ktVKsyxJQDVkuYz--9" target="HWPHDzoE_fYsGa_TJ66Y-13" edge="1">
                    <mxGeometry relative="1" as="geometry">
                        <mxPoint x="450" y="505" as="targetPoint"/>
                        <Array as="points">
                            <mxPoint x="530" y="670"/>
                            <mxPoint x="345" y="670"/>
                            <mxPoint x="345" y="250"/>
                            <mxPoint x="160" y="250"/>
                        </Array>
                    </mxGeometry>
                </mxCell>
                <mxCell id="yls2ktVKsyxJQDVkuYz--6" value="" style="edgeStyle=orthogonalEdgeStyle;curved=1;rounded=0;orthogonalLoop=1;jettySize=auto;html=1;entryX=1;entryY=0.5;entryDx=0;entryDy=0;" parent="1" source="HWPHDzoE_fYsGa_TJ66Y-18" target="HWPHDzoE_fYsGa_TJ66Y-15" edge="1">
                    <mxGeometry relative="1" as="geometry">
                        <mxPoint x="800" y="320" as="targetPoint"/>
                        <Array as="points">
                            <mxPoint x="760" y="530"/>
                            <mxPoint x="760" y="205"/>
                        </Array>
                    </mxGeometry>
                </mxCell>
                <mxCell id="HWPHDzoE_fYsGa_TJ66Y-18" value="6" style="ellipse;whiteSpace=wrap;html=1;aspect=fixed;" parent="1" vertex="1">
                    <mxGeometry x="530" y="480" width="50" height="50" as="geometry"/>
                </mxCell>
                <mxCell id="gtfGWuYc3_UtfgW0UjGu-30" value="" style="edgeStyle=orthogonalEdgeStyle;curved=1;rounded=0;orthogonalLoop=1;jettySize=auto;html=1;fontSize=18;" parent="1" source="HWPHDzoE_fYsGa_TJ66Y-22" target="gtfGWuYc3_UtfgW0UjGu-29" edge="1">
                    <mxGeometry relative="1" as="geometry"/>
                </mxCell>
                <mxCell id="HWPHDzoE_fYsGa_TJ66Y-22" value="8" style="ellipse;whiteSpace=wrap;html=1;aspect=fixed;" parent="1" vertex="1">
                    <mxGeometry x="220" y="290" width="50" height="50" as="geometry"/>
                </mxCell>
                <mxCell id="HWPHDzoE_fYsGa_TJ66Y-23" value="" style="endArrow=classic;html=1;rounded=0;exitX=0.5;exitY=1;exitDx=0;exitDy=0;entryX=0.5;entryY=0;entryDx=0;entryDy=0;" parent="1" source="HWPHDzoE_fYsGa_TJ66Y-17" target="HWPHDzoE_fYsGa_TJ66Y-18" edge="1">
                    <mxGeometry width="50" height="50" relative="1" as="geometry">
                        <mxPoint x="350" y="470" as="sourcePoint"/>
                        <mxPoint x="400" y="420" as="targetPoint"/>
                    </mxGeometry>
                </mxCell>
                <mxCell id="HWPHDzoE_fYsGa_TJ66Y-24" value="" style="endArrow=classic;html=1;rounded=0;entryX=0;entryY=0.5;entryDx=0;entryDy=0;exitX=1;exitY=0.5;exitDx=0;exitDy=0;" parent="1" source="HWPHDzoE_fYsGa_TJ66Y-8" target="HWPHDzoE_fYsGa_TJ66Y-11" edge="1">
                    <mxGeometry width="50" height="50" relative="1" as="geometry">
                        <mxPoint x="160" y="100" as="sourcePoint"/>
                        <mxPoint x="210" y="50" as="targetPoint"/>
                    </mxGeometry>
                </mxCell>
                <mxCell id="HWPHDzoE_fYsGa_TJ66Y-30" value="" style="endArrow=classic;html=1;rounded=0;entryX=0.5;entryY=0;entryDx=0;entryDy=0;exitX=0.5;exitY=1;exitDx=0;exitDy=0;" parent="1" source="HWPHDzoE_fYsGa_TJ66Y-14" target="HWPHDzoE_fYsGa_TJ66Y-22" edge="1">
                    <mxGeometry width="50" height="50" relative="1" as="geometry">
                        <mxPoint x="220" y="155" as="sourcePoint"/>
                        <mxPoint x="280" y="155" as="targetPoint"/>
                    </mxGeometry>
                </mxCell>
                <mxCell id="HWPHDzoE_fYsGa_TJ66Y-31" value="" style="endArrow=classic;html=1;rounded=0;entryX=0.5;entryY=0;entryDx=0;entryDy=0;exitX=0.5;exitY=1;exitDx=0;exitDy=0;" parent="1" source="HWPHDzoE_fYsGa_TJ66Y-15" target="HWPHDzoE_fYsGa_TJ66Y-16" edge="1">
                    <mxGeometry width="50" height="50" relative="1" as="geometry">
                        <mxPoint x="230" y="165" as="sourcePoint"/>
                        <mxPoint x="290" y="165" as="targetPoint"/>
                    </mxGeometry>
                </mxCell>
                <mxCell id="HWPHDzoE_fYsGa_TJ66Y-32" value="" style="endArrow=classic;html=1;rounded=0;exitX=0.5;exitY=1;exitDx=0;exitDy=0;" parent="1" source="HWPHDzoE_fYsGa_TJ66Y-16" target="HWPHDzoE_fYsGa_TJ66Y-17" edge="1">
                    <mxGeometry width="50" height="50" relative="1" as="geometry">
                        <mxPoint x="240" y="175" as="sourcePoint"/>
                        <mxPoint x="300" y="175" as="targetPoint"/>
                    </mxGeometry>
                </mxCell>
                <mxCell id="gtfGWuYc3_UtfgW0UjGu-2" value="&lt;font style=&quot;font-size: 18px;&quot;&gt;+&lt;/font&gt;" style="text;html=1;align=center;verticalAlign=middle;resizable=0;points=[];autosize=1;strokeColor=none;fillColor=none;" parent="1" vertex="1">
                    <mxGeometry x="505" y="60" width="30" height="40" as="geometry"/>
                </mxCell>
                <mxCell id="gtfGWuYc3_UtfgW0UjGu-3" value="[_a-zA-Z0-9&quot;.,:]" style="text;html=1;align=center;verticalAlign=middle;resizable=0;points=[];autosize=1;strokeColor=none;fillColor=none;fontSize=18;" parent="1" vertex="1">
                    <mxGeometry x="550" y="230" width="140" height="40" as="geometry"/>
                </mxCell>
                <mxCell id="gtfGWuYc3_UtfgW0UjGu-9" value="[_a-zA-Z0-9&quot;,.:]" style="text;html=1;align=center;verticalAlign=middle;resizable=0;points=[];autosize=1;strokeColor=none;fillColor=none;fontSize=18;" parent="1" vertex="1">
                    <mxGeometry x="590" y="285" width="140" height="40" as="geometry"/>
                </mxCell>
                <mxCell id="gtfGWuYc3_UtfgW0UjGu-10" value="&amp;lt;CR&amp;gt;" style="text;html=1;align=center;verticalAlign=middle;resizable=0;points=[];autosize=1;strokeColor=none;fillColor=none;fontSize=18;" parent="1" vertex="1">
                    <mxGeometry x="570" y="340" width="70" height="40" as="geometry"/>
                </mxCell>
                <mxCell id="gtfGWuYc3_UtfgW0UjGu-11" value="&amp;lt;LF&amp;gt;" style="text;html=1;align=center;verticalAlign=middle;resizable=0;points=[];autosize=1;strokeColor=none;fillColor=none;fontSize=18;" parent="1" vertex="1">
                    <mxGeometry x="570" y="440" width="70" height="40" as="geometry"/>
                </mxCell>
                <mxCell id="gtfGWuYc3_UtfgW0UjGu-24" value="E" style="text;html=1;align=center;verticalAlign=middle;resizable=0;points=[];autosize=1;strokeColor=none;fillColor=none;fontSize=18;" parent="1" vertex="1">
                    <mxGeometry x="300" y="150" width="40" height="40" as="geometry"/>
                </mxCell>
                <mxCell id="gtfGWuYc3_UtfgW0UjGu-25" value="E" style="text;html=1;align=center;verticalAlign=middle;resizable=0;points=[];autosize=1;strokeColor=none;fillColor=none;fontSize=18;" parent="1" vertex="1">
                    <mxGeometry x="380" y="230" width="40" height="40" as="geometry"/>
                </mxCell>
                <mxCell id="gtfGWuYc3_UtfgW0UjGu-26" value="O" style="text;html=1;align=center;verticalAlign=middle;resizable=0;points=[];autosize=1;strokeColor=none;fillColor=none;fontSize=18;" parent="1" vertex="1">
                    <mxGeometry x="340" y="300" width="40" height="40" as="geometry"/>
                </mxCell>
                <mxCell id="gtfGWuYc3_UtfgW0UjGu-27" value="O" style="text;html=1;align=center;verticalAlign=middle;resizable=0;points=[];autosize=1;strokeColor=none;fillColor=none;fontSize=18;" parent="1" vertex="1">
                    <mxGeometry x="240" y="100" width="40" height="40" as="geometry"/>
                </mxCell>
                <mxCell id="gtfGWuYc3_UtfgW0UjGu-28" value="R" style="text;html=1;align=center;verticalAlign=middle;resizable=0;points=[];autosize=1;strokeColor=none;fillColor=none;fontSize=18;" parent="1" vertex="1">
                    <mxGeometry x="190" y="245" width="40" height="40" as="geometry"/>
                </mxCell>
                <mxCell id="gtfGWuYc3_UtfgW0UjGu-33" value="" style="edgeStyle=orthogonalEdgeStyle;curved=1;rounded=0;orthogonalLoop=1;jettySize=auto;html=1;fontSize=18;" parent="1" source="gtfGWuYc3_UtfgW0UjGu-29" target="gtfGWuYc3_UtfgW0UjGu-32" edge="1">
                    <mxGeometry relative="1" as="geometry"/>
                </mxCell>
                <mxCell id="gtfGWuYc3_UtfgW0UjGu-29" value="9" style="ellipse;whiteSpace=wrap;html=1;aspect=fixed;" parent="1" vertex="1">
                    <mxGeometry x="220" y="380" width="50" height="50" as="geometry"/>
                </mxCell>
                <mxCell id="gtfGWuYc3_UtfgW0UjGu-31" value="R" style="text;html=1;align=center;verticalAlign=middle;resizable=0;points=[];autosize=1;strokeColor=none;fillColor=none;fontSize=18;" parent="1" vertex="1">
                    <mxGeometry x="200" y="340" width="40" height="40" as="geometry"/>
                </mxCell>
                <mxCell id="gtfGWuYc3_UtfgW0UjGu-36" value="" style="edgeStyle=orthogonalEdgeStyle;curved=1;rounded=0;orthogonalLoop=1;jettySize=auto;html=1;fontSize=18;" parent="1" source="gtfGWuYc3_UtfgW0UjGu-32" target="gtfGWuYc3_UtfgW0UjGu-35" edge="1">
                    <mxGeometry relative="1" as="geometry"/>
                </mxCell>
                <mxCell id="gtfGWuYc3_UtfgW0UjGu-32" value="10" style="ellipse;whiteSpace=wrap;html=1;aspect=fixed;" parent="1" vertex="1">
                    <mxGeometry x="220" y="460" width="50" height="50" as="geometry"/>
                </mxCell>
                <mxCell id="gtfGWuYc3_UtfgW0UjGu-34" value="O" style="text;html=1;align=center;verticalAlign=middle;resizable=0;points=[];autosize=1;strokeColor=none;fillColor=none;fontSize=18;" parent="1" vertex="1">
                    <mxGeometry x="200" y="420" width="40" height="40" as="geometry"/>
                </mxCell>
                <mxCell id="gtfGWuYc3_UtfgW0UjGu-40" value="" style="edgeStyle=orthogonalEdgeStyle;curved=1;rounded=0;orthogonalLoop=1;jettySize=auto;html=1;fontSize=18;" parent="1" source="gtfGWuYc3_UtfgW0UjGu-35" edge="1">
                    <mxGeometry relative="1" as="geometry">
                        <mxPoint x="245" y="610" as="targetPoint"/>
                    </mxGeometry>
                </mxCell>
                <mxCell id="gtfGWuYc3_UtfgW0UjGu-35" value="11" style="ellipse;whiteSpace=wrap;html=1;aspect=fixed;" parent="1" vertex="1">
                    <mxGeometry x="220" y="530" width="50" height="50" as="geometry"/>
                </mxCell>
                <mxCell id="gtfGWuYc3_UtfgW0UjGu-37" value="R" style="text;html=1;align=center;verticalAlign=middle;resizable=0;points=[];autosize=1;strokeColor=none;fillColor=none;fontSize=18;" parent="1" vertex="1">
                    <mxGeometry x="200" y="500" width="40" height="40" as="geometry"/>
                </mxCell>
                <mxCell id="gtfGWuYc3_UtfgW0UjGu-38" value="K" style="text;html=1;align=center;verticalAlign=middle;resizable=0;points=[];autosize=1;strokeColor=none;fillColor=none;fontSize=18;" parent="1" vertex="1">
                    <mxGeometry x="90" y="400" width="40" height="40" as="geometry"/>
                </mxCell>
                <mxCell id="gtfGWuYc3_UtfgW0UjGu-41" value="13" style="ellipse;whiteSpace=wrap;html=1;aspect=fixed;" parent="1" vertex="1">
                    <mxGeometry x="220" y="610" width="50" height="50" as="geometry"/>
                </mxCell>
                <mxCell id="gtfGWuYc3_UtfgW0UjGu-42" value="6" style="ellipse;whiteSpace=wrap;html=1;aspect=fixed;" parent="1" vertex="1">
                    <mxGeometry x="210" y="700" width="70" height="70" as="geometry"/>
                </mxCell>
                <mxCell id="gtfGWuYc3_UtfgW0UjGu-43" value="" style="endArrow=classic;html=1;rounded=0;exitX=0.5;exitY=1;exitDx=0;exitDy=0;entryX=0.5;entryY=0;entryDx=0;entryDy=0;" parent="1" source="gtfGWuYc3_UtfgW0UjGu-41" target="gtfGWuYc3_UtfgW0UjGu-42" edge="1">
                    <mxGeometry width="50" height="50" relative="1" as="geometry">
                        <mxPoint x="40" y="800" as="sourcePoint"/>
                        <mxPoint x="90" y="750" as="targetPoint"/>
                    </mxGeometry>
                </mxCell>
                <mxCell id="gtfGWuYc3_UtfgW0UjGu-45" value="&amp;lt;CR&amp;gt;" style="text;html=1;align=center;verticalAlign=middle;resizable=0;points=[];autosize=1;strokeColor=none;fillColor=none;fontSize=18;" parent="1" vertex="1">
                    <mxGeometry x="170" y="580" width="70" height="40" as="geometry"/>
                </mxCell>
                <mxCell id="gtfGWuYc3_UtfgW0UjGu-46" value="&amp;lt;LF&amp;gt;" style="text;html=1;align=center;verticalAlign=middle;resizable=0;points=[];autosize=1;strokeColor=none;fillColor=none;fontSize=18;" parent="1" vertex="1">
                    <mxGeometry x="170" y="650" width="70" height="40" as="geometry"/>
                </mxCell>
                <mxCell id="gtfGWuYc3_UtfgW0UjGu-51" value="14" style="ellipse;whiteSpace=wrap;html=1;aspect=fixed;" parent="1" vertex="1">
                    <mxGeometry x="220" y="710" width="50" height="50" as="geometry"/>
                </mxCell>
                <mxCell id="yls2ktVKsyxJQDVkuYz--1" value="&amp;lt;CR&amp;gt;" style="text;html=1;align=center;verticalAlign=middle;resizable=0;points=[];autosize=1;strokeColor=none;fillColor=none;fontSize=18;" parent="1" vertex="1">
                    <mxGeometry x="150" y="20" width="70" height="40" as="geometry"/>
                </mxCell>
                <mxCell id="yls2ktVKsyxJQDVkuYz--2" value="&amp;lt;LF&amp;gt;" style="text;html=1;align=center;verticalAlign=middle;resizable=0;points=[];autosize=1;strokeColor=none;fillColor=none;fontSize=18;" parent="1" vertex="1">
                    <mxGeometry x="310" y="30" width="70" height="40" as="geometry"/>
                </mxCell>
                <mxCell id="yls2ktVKsyxJQDVkuYz--7" value="&lt;font style=&quot;font-size: 18px;&quot;&gt;+&lt;/font&gt;" style="text;html=1;align=center;verticalAlign=middle;resizable=0;points=[];autosize=1;strokeColor=none;fillColor=none;" parent="1" vertex="1">
                    <mxGeometry x="770" y="340" width="30" height="40" as="geometry"/>
                </mxCell>
                <mxCell id="yls2ktVKsyxJQDVkuYz--8" value="15" style="ellipse;whiteSpace=wrap;html=1;aspect=fixed;" parent="1" vertex="1">
                    <mxGeometry x="530" y="580" width="50" height="50" as="geometry"/>
                </mxCell>
                <mxCell id="yls2ktVKsyxJQDVkuYz--9" value="16" style="ellipse;whiteSpace=wrap;html=1;aspect=fixed;" parent="1" vertex="1">
                    <mxGeometry x="530" y="680" width="50" height="50" as="geometry"/>
                </mxCell>
                <mxCell id="yls2ktVKsyxJQDVkuYz--10" value="" style="endArrow=classic;html=1;rounded=0;exitX=0.5;exitY=1;exitDx=0;exitDy=0;entryX=0.5;entryY=0;entryDx=0;entryDy=0;" parent="1" source="yls2ktVKsyxJQDVkuYz--8" target="yls2ktVKsyxJQDVkuYz--9" edge="1">
                    <mxGeometry width="50" height="50" relative="1" as="geometry">
                        <mxPoint x="350" y="670" as="sourcePoint"/>
                        <mxPoint x="400" y="620" as="targetPoint"/>
                    </mxGeometry>
                </mxCell>
                <mxCell id="yls2ktVKsyxJQDVkuYz--11" value="" style="endArrow=classic;html=1;rounded=0;exitX=0.5;exitY=1;exitDx=0;exitDy=0;" parent="1" target="yls2ktVKsyxJQDVkuYz--8" edge="1">
                    <mxGeometry width="50" height="50" relative="1" as="geometry">
                        <mxPoint x="555" y="530" as="sourcePoint"/>
                        <mxPoint x="300" y="375" as="targetPoint"/>
                    </mxGeometry>
                </mxCell>
                <mxCell id="yls2ktVKsyxJQDVkuYz--12" value="&amp;lt;CR&amp;gt;" style="text;html=1;align=center;verticalAlign=middle;resizable=0;points=[];autosize=1;strokeColor=none;fillColor=none;fontSize=18;" parent="1" vertex="1">
                    <mxGeometry x="570" y="540" width="70" height="40" as="geometry"/>
                </mxCell>
                <mxCell id="yls2ktVKsyxJQDVkuYz--13" value="&amp;lt;LF&amp;gt;" style="text;html=1;align=center;verticalAlign=middle;resizable=0;points=[];autosize=1;strokeColor=none;fillColor=none;fontSize=18;" parent="1" vertex="1">
                    <mxGeometry x="570" y="640" width="70" height="40" as="geometry"/>
                </mxCell>
            </root>
        </mxGraphModel>
    </diagram>
</mxfile>